<?xml version="1.0" encoding="UTF-8" standalone="no"?>
<!-- Created with Inkscape (http://www.inkscape.org/) -->

<svg
   xmlns:dc="http://purl.org/dc/elements/1.1/"
   xmlns:cc="http://creativecommons.org/ns#"
   xmlns:rdf="http://www.w3.org/1999/02/22-rdf-syntax-ns#"
   xmlns:svg="http://www.w3.org/2000/svg"
   xmlns="http://www.w3.org/2000/svg"
   xmlns:xlink="http://www.w3.org/1999/xlink"
   xmlns:sodipodi="http://sodipodi.sourceforge.net/DTD/sodipodi-0.dtd"
   xmlns:inkscape="http://www.inkscape.org/namespaces/inkscape"
   width="64"
   version="1.1"
   height="64"
   id="svg57"
   sodipodi:docname="x112v4l2.svg"
   inkscape:version="0.92.0 r15299"
   inkscape:export-filename="/data/src/x112v4l2/trunk/icons/x112v4l2-128.png"
   inkscape:export-xdpi="192"
   inkscape:export-ydpi="192">
  <sodipodi:namedview
     pagecolor="#ffffff"
     bordercolor="#666666"
     borderopacity="1"
     objecttolerance="10"
     gridtolerance="10"
     guidetolerance="10"
     inkscape:pageopacity="0"
     inkscape:pageshadow="2"
     inkscape:window-width="1920"
     inkscape:window-height="991"
     id="namedview59"
     showgrid="false"
     inkscape:zoom="1"
     inkscape:cx="-113.5"
     inkscape:cy="32"
     inkscape:window-x="0"
     inkscape:window-y="60"
     inkscape:window-maximized="1"
     inkscape:current-layer="g5052" />
  <defs
     id="defs5455">
    <linearGradient
       inkscape:collect="always"
       id="linearGradient4303">
      <stop
         style="stop-color:#c6cdd1"
         id="stop4305" />
      <stop
         offset="1"
         style="stop-color:#e0e5e7"
         id="stop4307" />
    </linearGradient>
    <linearGradient
       inkscape:collect="always"
       id="linearGradient4770-8">
      <stop
         id="stop4772-3" />
      <stop
         offset="1"
         style="stop-opacity:0"
         id="stop4774-6" />
    </linearGradient>
    <linearGradient
       inkscape:collect="always"
       id="linearGradient5002">
      <stop
         style="stop-color:#2e5d89"
         id="stop5004" />
      <stop
         offset="1"
         style="stop-color:#1b92f4"
         id="stop5006" />
    </linearGradient>
    <linearGradient
       inkscape:collect="always"
       id="linearGradient4327"
       xlink:href="#linearGradient5002"
       y1="514.63202"
       y2="527.79797"
       x1="402.40549"
       gradientUnits="userSpaceOnUse"
       x2="415.57144"
       gradientTransform="matrix(1.2000014 0 0 1.2000014 -81.71483 -104.96033)" />
    <linearGradient
       inkscape:collect="always"
       id="linearGradient4352"
       xlink:href="#linearGradient5002"
       y1="512.79797"
       y2="527.79797"
       x1="400.57144"
       x2="415.57144"
       gradientUnits="userSpaceOnUse"
       gradientTransform="matrix(1.1818182 0 0 1.1818182 -74.28571 -95.23599)" />
    <linearGradient
       inkscape:collect="always"
       id="linearGradient4356"
       xlink:href="#linearGradient5002"
       y1="509.70438"
       y2="527.79797"
       x1="397.47784"
       x2="415.57144"
       gradientUnits="userSpaceOnUse"
       gradientTransform="matrix(1.0000011 0 0 1.0000011 -0.000424 -1.00062)" />
    <linearGradient
       inkscape:collect="always"
       id="linearGradient4356-7"
       xlink:href="#linearGradient5002"
       y1="498.28754"
       y2="527.79797"
       x1="386.061"
       x2="415.57144"
       gradientUnits="userSpaceOnUse"
       gradientTransform="matrix(0.70000076 0 0 0.70000076 122.57112 154.93896)" />
    <linearGradient
       inkscape:collect="always"
       id="linearGradient4199">
      <stop
         style="stop-color:#2f3943"
         id="stop4201" />
      <stop
         offset="1"
         style="stop-color:#4d5662"
         id="stop4203" />
    </linearGradient>
    <linearGradient
       inkscape:collect="always"
       id="linearGradient4191">
      <stop
         style="stop-color:#18222a"
         id="stop4193" />
      <stop
         offset="1"
         style="stop-color:#566069"
         id="stop4195" />
    </linearGradient>
    <linearGradient
       inkscape:collect="always"
       id="linearGradient4545"
       xlink:href="#linearGradient4199"
       y1="28"
       y2="12"
       gradientUnits="userSpaceOnUse"
       x2="0"
       gradientTransform="matrix(1.2500005 0 0 1.1875001 382.57144 495.54797)" />
    <linearGradient
       inkscape:collect="always"
       id="linearGradient4545-5"
       xlink:href="#linearGradient4199"
       y1="28"
       y2="12"
       gradientUnits="userSpaceOnUse"
       x2="0"
       gradientTransform="matrix(-1.2500007 0 0 1.1875001 434.57144 495.54797)" />
    <linearGradient
       inkscape:collect="always"
       id="linearGradient4577"
       xlink:href="#linearGradient4191"
       y1="534.79797"
       y2="538.79797"
       x1="405.57144"
       gradientUnits="userSpaceOnUse"
       x2="411.57144"
       gradientTransform="matrix(1.2500048 0 0 0.70910087 -102.14482 157.57228)" />
    <linearGradient
       inkscape:collect="always"
       id="linearGradient4510-8"
       xlink:href="#linearGradient4191"
       y1="509.53143"
       y2="530.99805"
       x1="398.30478"
       gradientUnits="userSpaceOnUse"
       x2="419.77139"
       gradientTransform="matrix(0.92857223 0 0 0.92857223 29.18337 36.12792)" />
    <linearGradient
       inkscape:collect="always"
       id="linearGradient4609"
       xlink:href="#linearGradient4303"
       y1="530.79797"
       y2="507.798"
       x1="421.57144"
       gradientUnits="userSpaceOnUse"
       x2="398.57144"
       gradientTransform="matrix(1.1875 0 0 1.1875 -76.60712 -98.46213)" />
    <linearGradient
       inkscape:collect="always"
       id="linearGradient4617"
       xlink:href="#linearGradient4303"
       y1="531.79797"
       y2="501.69922"
       gradientUnits="userSpaceOnUse"
       x2="0"
       gradientTransform="matrix(1.0833321 0 0 1.2045475 -34.04704 -106.77793)" />
    <linearGradient
       inkscape:collect="always"
       id="linearGradient4159-5">
      <stop
         style="stop-color:#1d1e1e"
         id="stop4161-5" />
      <stop
         offset="1"
         style="stop-color:#44484c"
         id="stop4163-7" />
    </linearGradient>
    <linearGradient
       inkscape:collect="always"
       id="linearGradient4735"
       xlink:href="#linearGradient4770-8"
       y1="519.79797"
       y2="541.01117"
       gradientUnits="userSpaceOnUse"
       x2="0"
       gradientTransform="matrix(0.83567166 -0.83567166 0.83567166 0.83567166 -367.24058 426.12187)" />
    <linearGradient
       inkscape:collect="always"
       id="linearGradient4776-4"
       xlink:href="#linearGradient4770-8"
       y1="538.79797"
       y2="541.79797"
       x1="410.57144"
       gradientUnits="userSpaceOnUse"
       x2="413.57144"
       gradientTransform="matrix(1.2727274 0 0 1.4242361 -111.33768 -225.85028)" />
    <linearGradient
       inkscape:collect="always"
       id="linearGradient4784-5"
       xlink:href="#linearGradient4159-5"
       y1="541.79797"
       y2="543.79797"
       gradientUnits="userSpaceOnUse"
       x2="0"
       gradientTransform="matrix(1.1874992 0 0 1.000019 -76.60685 3.98971)" />
    <linearGradient
       inkscape:collect="always"
       id="linearGradient4828"
       xlink:href="#linearGradient4303"
       y1="537.79797"
       y2="539.79797"
       gradientUnits="userSpaceOnUse"
       x2="0"
       gradientTransform="matrix(1.1874993 0 0 1.3636306 -76.60685 -193.01434)" />
    <linearGradient
       inkscape:collect="always"
       xlink:href="#linearGradient4191"
       id="linearGradient5039"
       gradientUnits="userSpaceOnUse"
       gradientTransform="matrix(0.92857223,0,0,0.92857223,-347.38807,-455.67005)"
       x1="398.30478"
       y1="509.53143"
       x2="419.77139"
       y2="530.99805" />
    <linearGradient
       inkscape:collect="always"
       xlink:href="#linearGradient4199"
       id="linearGradient5045"
       gradientUnits="userSpaceOnUse"
       gradientTransform="matrix(-1.2142883,0,0,-1.2142879,528.12352,658.18443)"
       x1="398.5715"
       y1="508.798"
       x2="418.57147"
       y2="528.79797" />
  </defs>
  <metadata
     id="metadata5458">
    <rdf:RDF>
      <cc:Work
         rdf:about="">
        <dc:format>image/svg+xml</dc:format>
        <dc:type
           rdf:resource="http://purl.org/dc/dcmitype/StillImage" />
        <dc:title />
      </cc:Work>
    </rdf:RDF>
  </metadata>
  <g
     inkscape:groupmode="layer"
     id="layer2"
     inkscape:label="X"
     style="display:none"
     sodipodi:insensitive="true">
    <g
       id="layer1-6"
       transform="matrix(1.2095356,0,0,1.2095356,-473.88093,-539.16583)">
      <path
         style="fill:#000000;stroke-width:0.06511524"
         id="path2830"
         d="m 409.04851,476.9862 c 0,0 6.77607,-8.64638 6.77607,-8.64638 0,0 -6.77607,-9.1324 -6.77607,-9.1324 h 4.38245 c 0,0 5.4272,7.38981 5.4272,7.38981 l -8.26084,10.38897 z m 7.84653,-7.32964 8.25849,-10.44914 c 0,0 1.59237,0 1.59237,0 l -6.77809,8.57382 c 0,0 6.77809,9.20496 6.77809,9.20496 h -4.38248 c 0,0 -5.46838,-7.32964 -5.46838,-7.32964 z"
         inkscape:connector-curvature="0" />
    </g>
  </g>
  <g
     style="display:inline"
     transform="translate(-376.57144,-491.79797)"
     id="g4995"
     inkscape:groupmode="layer"
     inkscape:label="Camera"
     sodipodi:insensitive="true">
    <rect
       id="rect4957"
       style="fill:url(#linearGradient4828);stroke-width:2;stroke-linecap:round;stroke-linejoin:round"
       height="5.4545231"
       y="540.34344"
       x="389.57144"
       width="37.999977" />
    <rect
       id="rect4959"
       style="fill:url(#linearGradient4617);stroke-width:2;stroke-linecap:round;stroke-linejoin:round"
       height="28.909117"
       rx="0"
       y="504.88885"
       x="382.57153"
       width="52" />
    <path
       d="m 421.94306,505.69912 -26.74325,26.74325 0.81019,0.81019 h 38.56144 v -12.56143 z"
       id="path4961"
       style="opacity:0.2;fill:url(#linearGradient4735);stroke-width:2;stroke-linecap:round;stroke-linejoin:round"
       inkscape:connector-curvature="0" />
    <path
       d="m 403.57143,541.52529 3.81817,4.2727 h 10.18183 l -3.81819,-4.2727 z"
       id="path4963"
       style="opacity:0.2;fill:url(#linearGradient4776-4);fill-rule:evenodd"
       inkscape:connector-curvature="0" />
    <path
       d="m 403.57143,536.79798 h 10 v 4.72731 c 0,0 -1.25002,1.18182 -4.99999,1.18182 -3.74997,0 -5.00001,-1.18182 -5.00001,-1.18182 z"
       id="path4965"
       style="fill:url(#linearGradient4577);stroke-width:2;stroke-linecap:round;stroke-linejoin:round"
       inkscape:connector-curvature="0" />
    <rect
       id="rect4967"
       style="fill:url(#linearGradient4784-5);stroke-width:2;stroke-linecap:round;stroke-linejoin:round"
       height="2.00001"
       y="545.79797"
       x="389.57144"
       width="37.999977" />
    <circle
       r="19"
       id="circle4969"
       style="fill:url(#linearGradient4609);stroke-width:2;stroke-linecap:round;stroke-linejoin:round"
       cy="518.79797"
       cx="408.57144" />
    <path
       d=""
       r="9.999989"
       id="path4977"
       style="fill:url(#linearGradient4352);stroke-width:2;stroke-linecap:round;stroke-linejoin:round"
       inkscape:connector-curvature="0"
       cy="519.79797"
       cx="408.57144" />
    <path
       d="m 382.57144,509.79797 v 19 h 2.5 c 1.38502,0 2.5,-1.05923 2.5,-2.375 v -14.25001 c 0,-1.31576 -1.11498,-2.37499 -2.5,-2.37499 z"
       id="path4985"
       style="fill:url(#linearGradient4545);stroke-width:2;stroke-linecap:round;stroke-linejoin:round"
       inkscape:connector-curvature="0" />
    <path
       d="m 434.57144,509.79797 v 19 h -2.50001 c -1.38501,0 -2.49999,-1.05923 -2.49999,-2.375 v -14.25001 c 0,-1.31576 1.11498,-2.37499 2.49999,-2.37499 z"
       id="path4987"
       style="fill:url(#linearGradient4545-5);stroke-width:2;stroke-linecap:round;stroke-linejoin:round"
       inkscape:connector-curvature="0" />
    <circle
       r="1.5"
       id="circle4989"
       style="fill:#11d116;stroke-width:2;stroke-linecap:round;stroke-linejoin:round"
       cy="514.29797"
       cx="432.07144" />
    <circle
       cx="408.57144"
       cy="518.79797"
       style="display:inline;fill:url(#linearGradient4510-8);stroke-width:2;stroke-linecap:round;stroke-linejoin:round"
       id="circle5026"
       r="12.999987" />
  </g>
  <g
     inkscape:groupmode="layer"
     id="layer4"
     inkscape:label="Lens"
     style="display:inline"
     sodipodi:insensitive="true">
    <circle
       transform="translate(-376.57144,-491.79797)"
       r="12"
       id="circle4975"
       style="display:inline;fill:url(#linearGradient4327);stroke-width:2;stroke-linecap:round;stroke-linejoin:round"
       cy="518.79797"
       cx="408.57144" />
    <circle
       transform="translate(-376.57144,-491.79797)"
       r="10"
       id="circle4979"
       style="display:inline;fill:url(#linearGradient4356);stroke-width:2;stroke-linecap:round;stroke-linejoin:round"
       cy="518.79797"
       cx="408.57144" />
    <circle
       transform="translate(-376.57144,-491.79797)"
       r="7"
       id="circle4981"
       style="display:inline;fill:url(#linearGradient4356-7);stroke-width:2;stroke-linecap:round;stroke-linejoin:round"
       cy="518.79797"
       cx="408.57144" />
  </g>
  <g
     style="display:inline"
     inkscape:label="X copy"
     id="g5052"
     inkscape:groupmode="layer"
     sodipodi:insensitive="true">
    <path
       style="fill:#000000;stroke:#000000;stroke-width:0.5;stroke-miterlimit:4;stroke-dasharray:none;stroke-opacity:1"
       d="m 20.711138,37.321516 c 0,0 8.195898,-10.458105 8.195898,-10.458105 0,0 -8.195898,-11.045963 -8.195898,-11.045963 h 5.300729 c 0,0 6.564392,8.938239 6.564392,8.938239 l -9.99178,12.565829 z"
       id="path5076"
       inkscape:connector-curvature="0" />
    <path
       style="fill:#000000;stroke:#000000;stroke-width:0.5;stroke-miterlimit:4;stroke-dasharray:none;stroke-opacity:1"
       d="m 31.25376,29.511573 9.988938,-12.638607 c 0,0 1.926028,0 1.926028,0 l -8.198341,10.370341 c 0,0 8.198341,11.133727 8.198341,11.133727 h -5.300765 c 0,0 -6.614201,-8.865461 -6.614201,-8.865461 z"
       id="path5048"
       inkscape:connector-curvature="0" />
  </g>
  <g
     inkscape:groupmode="layer"
     id="layer6"
     inkscape:label="Bezel"
     style="display:inline"
     sodipodi:insensitive="true">
    <path
       style="display:inline;fill:url(#linearGradient5045);stroke-width:2;stroke-linecap:round;stroke-linejoin:round"
       d="M 32,10 A 17.000003,16.999998 0 0 0 15,27 17.000003,16.999998 0 0 0 32,44 17.000003,16.999998 0 0 0 49,27 17.000003,16.999998 0 0 0 32,10 Z m 0,5 A 12,12 0 0 1 44,27 12,12 0 0 1 32,39 12,12 0 0 1 20,27 12,12 0 0 1 32,15 Z"
       id="path4971"
       inkscape:connector-curvature="0" />
    <path
       style="display:inline;fill:url(#linearGradient5039);stroke-width:2;stroke-linecap:round;stroke-linejoin:round"
       d="M 32,14 A 12.999987,12.999987 0 0 0 19,27 12.999987,12.999987 0 0 0 32,40 12.999987,12.999987 0 0 0 45,27 12.999987,12.999987 0 0 0 32,14 Z m 0,1 A 12,12 0 0 1 44,27 12,12 0 0 1 32,39 12,12 0 0 1 20,27 12,12 0 0 1 32,15 Z"
       id="circle4973"
       inkscape:connector-curvature="0" />
  </g>
</svg>
